<svg xmlns="http://www.w3.org/2000/svg" viewBox="0 0 27.28 26.17"><title>Ресурс 1</title><g id="Слой_2" data-name="Слой 2"><g id="Слой_1-2" data-name="Слой 1"><path d="M27.28,12.73a2.29,2.29,0,0,0-2.38-2.29H16.37a18,18,0,0,0,1.52-6.66C17.89.66,16.32,0,15,0a2,2,0,0,0-2,1.74c0,.47-.08,4.67-2.64,6.82-2.73,2.29-3.51,2.89-5,2.89-1.74,0-4.84,0-4.84,0H0V23.7H5.71a12.11,12.11,0,0,1,2.47.93,14.43,14.43,0,0,0,4.69,1.54h8.25a2.4,2.4,0,0,0,2.44-2.35,2.32,2.32,0,0,0-.49-1.41,2.35,2.35,0,0,0,1.71-2.25,2.32,2.32,0,0,0-.5-1.43A2.4,2.4,0,0,0,26,16.45,2.37,2.37,0,0,0,25.47,15a2.37,2.37,0,0,0,1.8-2.29ZM24.9,14.05H23.08v1h.48a1.35,1.35,0,1,1,0,2.7H22v1.05h.4a1.31,1.31,0,0,1,0,2.61H21v1.05h.14a1.31,1.31,0,1,1,0,2.61H12.87A14.62,14.62,0,0,1,8.6,23.68a9.34,9.34,0,0,0-2.89-1H1.05V12.53l4.31,0c1.94,0,3-.85,5.68-3.14,2.87-2.4,3-6.77,3-7.62,0-.43.65-.69.94-.69.55,0,1.84,0,1.84,2.73a17.76,17.76,0,0,1-1.76,7l-.39.76h6.43s0,0,0,0H24.9a1.25,1.25,0,0,1,1.33,1.24,1.33,1.33,0,0,1-1.33,1.32Z"/></g></g></svg>