<svg style="display: none;" xmlns="http://www.w3.org/2000/svg">
        <symbol viewBox="0 0 25.18 25.18" id="search">
            <path d="M25.18,23.86,17.92,16.6a10.14,10.14,0,1,0-1.32,1.32l7.26,7.26ZM1.07,10.13a9.06,9.06,0,1,1,9.06,9.06A9.06,9.06,0,0,1,1.07,10.13Z"/>
        </symbol>

        <symbol viewBox="0 0 27.28 26.17" id="like">
            <path d="M27.28,12.73a2.29,2.29,0,0,0-2.38-2.29H16.37a18,18,0,0,0,1.52-6.66C17.89.66,16.32,0,15,0a2,2,0,0,0-2,1.74c0,.47-.08,4.67-2.64,6.82-2.73,2.29-3.51,2.89-5,2.89-1.74,0-4.84,0-4.84,0H0V23.7H5.71a12.11,12.11,0,0,1,2.47.93,14.43,14.43,0,0,0,4.69,1.54h8.25a2.4,2.4,0,0,0,2.44-2.35,2.32,2.32,0,0,0-.49-1.41,2.35,2.35,0,0,0,1.71-2.25,2.32,2.32,0,0,0-.5-1.43A2.4,2.4,0,0,0,26,16.45,2.37,2.37,0,0,0,25.47,15a2.37,2.37,0,0,0,1.8-2.29ZM24.9,14.05H23.08v1h.48a1.35,1.35,0,1,1,0,2.7H22v1.05h.4a1.31,1.31,0,0,1,0,2.61H21v1.05h.14a1.31,1.31,0,1,1,0,2.61H12.87A14.62,14.62,0,0,1,8.6,23.68a9.34,9.34,0,0,0-2.89-1H1.05V12.53l4.31,0c1.94,0,3-.85,5.68-3.14,2.87-2.4,3-6.77,3-7.62,0-.43.65-.69.94-.69.55,0,1.84,0,1.84,2.73a17.76,17.76,0,0,1-1.76,7l-.39.76h6.43s0,0,0,0H24.9a1.25,1.25,0,0,1,1.33,1.24,1.33,1.33,0,0,1-1.33,1.32Z"/>
        </symbol>
        <symbol id="angle" viewBox="0 0 12.04 6.83"><path d="M5.3,6.08l.76.75L12,.75,11.28,0,6.05,5.32.75.11,0,.87l3,3Z"/>
        </symbol>
        <symbol id="check" viewBox="0 0 26.66 26.66">
       <path d="M13.33,0A13.33,13.33,0,1,0,26.66,13.33,13.33,13.33,0,0,0,13.33,0Zm0,25.59A12.26,12.26,0,1,1,25.59,13.33,12.27,12.27,0,0,1,13.33,25.59Z"/><path d="M20,8.57l-8.55,8.3-3-3a.8.8,0,0,0-1.13,0,.79.79,0,0,0,0,1.13l3.55,3.56a.83.83,0,0,0,.57.23.77.77,0,0,0,.55-.22l9.13-8.85a.8.8,0,0,0,0-1.13.79.79,0,0,0-1.13,0Z"/>
        </symbol>

    </svg>



